# xmcd
#
# Track frame offsets:
#	150
#	19594
#	39060
#	54333
#	76814
#	92787
#	109350
#	125033
#	143853
#	162342
#	183344
#	201765
#	217667
#
# Disc length: 3131 seconds
#
# Revision: 0
# Processed by: cddbd v1.5.1PL2 Copyright (c) Steve Scherf et al.
# Submitted via: dBpowerAMP V4.0
#
DISCID=a50c390d
DTITLE=Darren Bessette and the Destination Bound Band - Ten Thousand Miles
DYEAR=2005
DGENRE=Country
TTITLE0=Slant Six
TTITLE1=Moxie Road
TTITLE2=Country Philosophy
TTITLE3=Sacrifice
TTITLE4=#1 Ranked
TTITLE5=Great Being Alive
TTITLE6=Six Feet Down
TTITLE7=Destination Bound
TTITLE8=Highest Place (I'd Ever Been)
TTITLE9=Irish Cove
TTITLE10=Highway of Dreams
TTITLE11=Freight Shaker
TTITLE12=Northern Winds
EXTD=
EXTT0=
EXTT1=
EXTT2=
EXTT3=
EXTT4=
EXTT5=
EXTT6=
EXTT7=
EXTT8=
EXTT9=
EXTT10=
EXTT11=
EXTT12=
PLAYORDER=
